HIERARCHY
ROOT hip
{
  OFFSET 0 0 0
  CHANNELS 6 Xposition Yposition Zposition Zrotation Yrotation Xrotation
  JOINT abdomen
  {
    OFFSET 0 20.6881 -0.73152
    CHANNELS 3 Zrotation Xrotation Yrotation
    JOINT chest
    {
      OFFSET 0 11.7043 -0.48768
      CHANNELS 3 Zrotation Xrotation Yrotation
      JOINT neck
      {
        OFFSET 0 22.1894 -2.19456
        CHANNELS 3 Zrotation Xrotation Yrotation
        JOINT head
        {
          OFFSET -0.24384 7.07133 1.2192
          CHANNELS 3 Zrotation Xrotation Yrotation
          JOINT leftEye
          {
            OFFSET 4.14528 8.04674 8.04672
            CHANNELS 3 Zrotation Xrotation Yrotation
            End Site
            {
              OFFSET 1 0 0
            }
          }
          JOINT rightEye
          {
            OFFSET -3.6576 8.04674 8.04672
            CHANNELS 3 Zrotation Xrotation Yrotation
            End Site
            {
              OFFSET 1 0 0
            }
          }
        }
      }
      JOINT rCollar
      {
        OFFSET -2.68224 19.2634 -4.8768
        CHANNELS 3 Zrotation Xrotation Yrotation
        JOINT rShldr
        {
          OFFSET -8.77824 -1.95073 1.46304
          CHANNELS 3 Zrotation Xrotation Yrotation
          JOINT rForeArm
          {
            OFFSET -28.1742 -1.7115 0.48768
            CHANNELS 3 Zrotation Xrotation Yrotation
            JOINT rHand
            {
              OFFSET -22.5879 0.773209 7.07136
              CHANNELS 3 Zrotation Xrotation Yrotation
              JOINT rThumb1
              {
                OFFSET -1.2192 -0.487915 3.41376
                CHANNELS 3 Zrotation Xrotation Yrotation
                JOINT rThumb2
                {
                  OFFSET -3.37035 -0.52449 3.41376
                  CHANNELS 3 Zrotation Xrotation Yrotation
                  End Site
                  {
                    OFFSET -1.78271 -1.18214 1.43049
                  }
                }
              }
              JOINT rIndex1
              {
                OFFSET -7.75947 0.938293 5.60832
                CHANNELS 3 Zrotation Xrotation Yrotation
                JOINT rIndex2
                {
                  OFFSET -2.54057 -0.884171 1.56538
                  CHANNELS 3 Zrotation Xrotation Yrotation
                  End Site
                  {
                    OFFSET -1.62519 -0.234802 1.16502
                  }
                }
              }
              JOINT rMid1
              {
                OFFSET -8.24714 1.18213 3.41376
                CHANNELS 3 Zrotation Xrotation Yrotation
                JOINT rMid2
                {
                  OFFSET -3.10165 -0.590103 1.0647
                  CHANNELS 3 Zrotation Xrotation Yrotation
                  End Site
                  {
                    OFFSET -2.48547 -0.328903 0.83742
                  }
                }
              }
              JOINT rRing1
              {
                OFFSET -8.82822 0.546677 1.51678
                CHANNELS 3 Zrotation Xrotation Yrotation
                JOINT rRing2
                {
                  OFFSET -2.60934 -0.819778 -0.0198488
                  CHANNELS 3 Zrotation Xrotation Yrotation
                  End Site
                  {
                    OFFSET -2.33842 -0.294052 0.168128
                  }
                }
              }
              JOINT rPinky1
              {
                OFFSET -8.27202 -0.0477905 -0.4584
                CHANNELS 3 Zrotation Xrotation Yrotation
                JOINT rPinky2
                {
                  OFFSET -1.82734 -0.647385 -0.700984
                  CHANNELS 3 Zrotation Xrotation Yrotation
                  End Site
                  {
                    OFFSET -1.69225 -0.51767 -0.607171
                  }
                }
              }
            }
          }
        }
      }
      JOINT lCollar
      {
        OFFSET 2.68224 19.2634 -4.8768
        CHANNELS 3 Zrotation Xrotation Yrotation
        JOINT lShldr
        {
          OFFSET 8.77824 -1.95073 1.46304
          CHANNELS 3 Zrotation Xrotation Yrotation
          JOINT lForeArm
          {
            OFFSET 28.1742 -1.7115 0.48768
            CHANNELS 3 Zrotation Xrotation Yrotation
            JOINT lHand
            {
              OFFSET 22.5879 0.773209 7.07136
              CHANNELS 3 Zrotation Xrotation Yrotation
              JOINT lThumb1
              {
                OFFSET 1.2192 -0.487915 3.41376
                CHANNELS 3 Zrotation Xrotation Yrotation
                JOINT lThumb2
                {
                  OFFSET 3.37035 -0.52449 3.41376
                  CHANNELS 3 Zrotation Xrotation Yrotation
                  End Site
                  {
                    OFFSET 1.78271 -1.18214 1.43049
                  }
                }
              }
              JOINT lIndex1
              {
                OFFSET 7.75947 0.938293 5.60832
                CHANNELS 3 Zrotation Xrotation Yrotation
                JOINT lIndex2
                {
                  OFFSET 2.54057 -0.884171 1.56538
                  CHANNELS 3 Zrotation Xrotation Yrotation
                  End Site
                  {
                    OFFSET 1.62519 -0.234802 1.16502
                  }
                }
              }
              JOINT lMid1
              {
                OFFSET 8.24714 1.18213 3.41376
                CHANNELS 3 Zrotation Xrotation Yrotation
                JOINT lMid2
                {
                  OFFSET 3.10165 -0.590103 1.0647
                  CHANNELS 3 Zrotation Xrotation Yrotation
                  End Site
                  {
                    OFFSET 2.48547 -0.328903 0.83742
                  }
                }
              }
              JOINT lRing1
              {
                OFFSET 8.82822 0.546677 1.51678
                CHANNELS 3 Zrotation Xrotation Yrotation
                JOINT lRing2
                {
                  OFFSET 2.60934 -0.819778 -0.0198488
                  CHANNELS 3 Zrotation Xrotation Yrotation
                  End Site
                  {
                    OFFSET 2.33842 -0.294052 0.168128
                  }
                }
              }
              JOINT lPinky1
              {
                OFFSET 8.27202 -0.0477905 -0.4584
                CHANNELS 3 Zrotation Xrotation Yrotation
                JOINT lPinky2
                {
                  OFFSET 1.82734 -0.647385 -0.700984
                  CHANNELS 3 Zrotation Xrotation Yrotation
                  End Site
                  {
                    OFFSET 1.69225 -0.51767 -0.607171
                  }
                }
              }
            }
          }
        }
      }
    }
  }
  JOINT rButtock
  {
    OFFSET -8.77824 4.35084 1.2192
    CHANNELS 3 Zrotation Xrotation Yrotation
    JOINT rThigh
    {
      OFFSET 0 -1.70687 -2.19456
      CHANNELS 3 Zrotation Xrotation Yrotation
      JOINT rShin
      {
        OFFSET 0 -36.8199 0.73152
        CHANNELS 3 Zrotation Xrotation Yrotation
        JOINT rFoot
        {
          OFFSET 0.73152 -45.1104 -5.12064
          CHANNELS 3 Zrotation Xrotation Yrotation
          End Site
          {
            OFFSET -1.1221 -3.69964 12.103
          }
        }
      }
    }
  }
  JOINT lButtock
  {
    OFFSET 8.77824 4.35084 1.2192
    CHANNELS 3 Zrotation Xrotation Yrotation
    JOINT lThigh
    {
      OFFSET 0 -1.70687 -2.19456
      CHANNELS 3 Zrotation Xrotation Yrotation
      JOINT lShin
      {
        OFFSET 0 -36.8199 0.73152
        CHANNELS 3 Zrotation Xrotation Yrotation
        JOINT lFoot
        {
          OFFSET -0.73152 -45.1104 -5.12064
          CHANNELS 3 Zrotation Xrotation Yrotation
          End Site
          {
            OFFSET 1.1221 -3.69964 12.103
          }
        }
      }
    }
  }
}
MOTION
Frames:	4
Frame Time:	0.00833333
-20.9895 81.6801 36.168499999999995 -169.417342 67.750602 -159.34022 9.212969 -33.886457 5.4875 0.34135 9.772704 -30.00921 14.202297 15.601222 119.839493 -2.315735 23.968728 -112.071262 -0.001673 -0.0 0.000812 -0.001673 -0.0 0.000812 2.459913 -18.216392 -3.668639 62.822421 10.217352 -18.356721 -8.160717 16.018184 57.844873 -4.544644 17.949409 0.588558 -174.302844 -11.965905 89.864861 42.125983 -68.445276 32.592257 159.643266 -69.973835 102.396756 -151.332351 -4.807773 117.041041 -125.643627 49.83937 115.273212 -42.231717 58.376022 36.496561 -145.112023 -0.668782 -178.918205 11.939542 28.342386 -5.779355 -9.258046 -19.387051 -8.753118 2.865327 -0.005182 -0.057793 44.039828 64.186999 -46.710569 21.719531 17.34463 6.67923 106.401039 -51.100441 71.155788 -4.320364 -31.425352 1.568861 -3.025071 -3.006629 0.386683 30.468489 24.488179 -25.531789 69.681381 43.293157 -57.342459 -4.5874 2.487933 3.559335 -0.539747 -1.59007 0.296091 177.887128 -45.282623 -142.319255 145.119438 0.227021 179.19876 141.825723 -56.541929 163.972514 -0.465345 1.226521 -0.428191 147.257396 11.338824 143.62123 -179.898568 75.749037 -0.078178 162.403428 62.944233 15.614034 27.320173 41.003866 29.299244 165.925167 -77.253898 43.753478 -179.990448 75.750886 -0.006536 174.879546 53.99004 22.286411 19.789634 37.044565 179.489376 -82.828527 56.175809 -173.832652
-21.0844 82.0282 35.9266 -170.577943 68.148202 -160.91088 7.118329 -32.537247 47.846107 7.865209 5.300598 -73.15716 -5.413077 12.070875 -74.885289 11.247757 -3.149976 87.063586 0.001397 -0.0 -0.001346 -0.003297 -0.0 0.005243 -150.119609 21.70092 155.219182 117.843505 -32.665411 139.480439 -98.36513 25.52386 49.447993 69.226524 -69.032734 55.078935 -173.582764 -11.253399 89.899058 -45.990168 -16.344902 7.107052 -138.763056 4.486989 115.031107 -170.159902 -28.08747 118.153972 68.987065 -80.152877 40.579842 -169.012627 -21.670918 144.119985 -74.842 72.959866 92.82842 5.862672 0.004767 -4.536998 -127.125011 -26.188439 -124.831458 11.887902 26.12535 4.334068 -4.223385 -44.025521 8.501754 -9.741396 2.768207 -46.18883 5.393533 11.720759 -50.124923 5.546952 -5.37275 2.829311 -17.492145 -17.281507 0.030462 132.021311 -17.494242 -118.708412 135.710869 8.931687 -113.080092 64.14655 56.411627 -45.540462 -78.537342 -80.919047 -49.688088 163.680785 -5.369755 -143.216663 0.060172 -3.508259 1.105732 155.561183 -8.263621 -172.856845 136.958224 -9.524612 134.264165 5.331208 -17.208233 8.619387 0.000697 0.000323 -0.000896 -10.126055 -15.235683 -44.599071 -21.560786 45.16584 55.716518 75.861096 -33.219718 -35.60185 -179.98107 75.749969 -0.01459 174.728249 55.663361 19.588582 24.005803 29.278092 74.216925 164.321531 86.505969 87.491433
-26.1117 81.8198 38.1613 2.583032 76.449033 10.810146 9.496212 -28.347659 4.891559 0.36157 6.340018 -24.103027 -4.921416 15.678028 -94.603109 15.979663 0.349941 108.190103 0.005531 -0.0 -0.001708 0.004291 -0.0 -0.006895 -14.148228 43.061569 15.996497 -118.984277 -10.299814 143.521689 120.60875 28.727898 -88.801712 -62.396 72.59549 44.63528 -0.492702 0.484198 0.077681 11.219513 -16.002483 -8.331101 -142.227628 -0.987684 117.0595 6.960047 5.191551 -8.663255 -145.289568 29.525005 132.693249 -164.468183 -8.736168 143.379893 0.005203 0.918125 0.287781 8.373257 19.532577 2.74347 -138.874325 -5.230696 -136.061426 65.396017 83.479847 -27.299198 6.251009 26.219263 -7.467717 -118.082849 -60.499494 -137.941589 -152.603248 -44.974416 -77.942408 170.227121 16.063277 -139.977564 -11.110667 -11.091886 0.639837 112.526963 9.1179 -101.078398 77.666666 43.030489 -64.53881 0.151661 9.867705 2.514102 156.473002 5.587306 -140.945684 -2.698865 1.640561 -0.57739 71.538094 -72.14118 88.495926 71.762288 83.270511 -89.55068 -1.135336 3.040725 -1.041996 144.092725 1.507277 140.997266 -0.0 -0.000395 -2e-06 -12.434161 -23.983595 -157.378514 -54.311706 -36.078351 -155.16725 -54.965745 73.472761 -0.594878 179.99999 75.750037 1e-05 176.461843 54.01824 -178.21721 -1.706947 -27.797185 162.068656 -33.312266 -27.873655 5.194918
-26.4843 81.9368 38.0522 -1.822598 77.263813 7.725467 8.846387 -28.283347 159.550166 1.488555 -8.025535 -171.614953 -5.08639 11.054962 -67.352244 10.620729 -5.590428 83.538976 -0.000298 0.0 -0.002689 -0.00022 0.0 -0.003853 0.022782 -0.138707 -0.03052 60.447363 7.110231 -0.682321 172.589191 -0.430198 85.850207 171.901531 -13.813782 144.128454 -175.329579 -12.974987 89.798618 8.461052 -60.438023 10.213121 -37.73231 36.426312 28.889772 -161.70731 -7.475666 111.513108 -157.179876 3.644555 141.373093 -34.762919 54.92177 29.487317 -74.841605 72.962551 92.827394 -80.921395 83.256611 89.847242 -156.383754 53.733767 -150.118327 1.757578 0.382653 -1.587671 130.421035 54.549568 -134.28828 1.712503 15.369855 28.580595 175.208332 -19.235015 138.194748 7.871884 -3.979391 3.035681 4.166299 4.05763 -0.782668 -12.174028 -15.321444 6.262126 14.22913 19.203244 -9.559791 170.31792 -22.676726 -109.595713 -23.902316 -61.334112 -1.397208 5.170499 21.272214 -4.523966 145.101188 -1.437682 178.675188 151.263219 -30.384887 174.193375 144.260331 9.239183 141.006773 -3.294614 2.377422 1.27487 0.009472 -0.000709 0.004736 -12.39698 -33.769343 180.0 -16.799759 -71.979527 54.042754 108.111425 -45.937903 -131.571657 -0.001766 1.5e-05 -0.000883 -1.040054 -19.515953 -0.366962 -5.345497 36.135571 -147.587046 -49.984078 45.315231 170.235423
